HIERARCHY
ROOT Hips
{
	OFFSET 0.000000 0.000000 0.000000
	CHANNELS 6 Xposition Yposition Zposition Zrotation Yrotation Xrotation 
	JOINT LHipJoint
	{
		OFFSET 0.000000 0.000000 0.000000
		CHANNELS 3 Zrotation Yrotation Xrotation
		JOINT LeftUpLeg
		{
			OFFSET 1.363060 -1.794630 0.839290
			CHANNELS 3 Zrotation Yrotation Xrotation
			JOINT LeftLeg
			{
				OFFSET 2.448110 -6.726130 0.000000
				CHANNELS 3 Zrotation Yrotation Xrotation
				JOINT LeftFoot
				{
					OFFSET 2.562200 -7.039590 0.000000
					CHANNELS 3 Zrotation Yrotation Xrotation
					JOINT LeftToeBase
					{
						OFFSET 0.157640 -0.433110 2.322550
						CHANNELS 3 Zrotation Yrotation Xrotation
						End Site
						{
							OFFSET 0.000000 0.000000 0.000000
						}
					}
				}
			}
		}
	}
	JOINT RHipJoint
	{
		OFFSET 0.000000 0.000000 0.000000
		CHANNELS 3 Zrotation Yrotation Xrotation
		JOINT RightUpLeg
		{
			OFFSET -1.305520 -1.794630 0.839290
			CHANNELS 3 Zrotation Yrotation Xrotation
			JOINT RightLeg
			{
				OFFSET -2.542530 -6.985550 0.000000
				CHANNELS 3 Zrotation Yrotation Xrotation
				JOINT RightFoot
				{
					OFFSET -2.568260 -7.056230 0.000000
					CHANNELS 3 Zrotation Yrotation Xrotation
					JOINT RightToeBase
					{
						OFFSET -0.164730 -0.452590 2.363150
						CHANNELS 3 Zrotation Yrotation Xrotation
						End Site
						{
							OFFSET 0.000000 0.000000 0.000000
						}
					}
				}
			}
		}
	}
	JOINT LowerBack
	{
		OFFSET 0.000000 0.000000 0.000000
		CHANNELS 3 Zrotation Yrotation Xrotation
		JOINT Spine
		{
			OFFSET 0.028270 2.035590 -0.193380
			CHANNELS 3 Zrotation Yrotation Xrotation
			JOINT Spine1
			{
				OFFSET 0.056720 2.048850 -0.042750
				CHANNELS 3 Zrotation Yrotation Xrotation
				JOINT Neck
				{
					OFFSET 0.000000 0.000000 0.000000
					CHANNELS 3 Zrotation Yrotation Xrotation
					JOINT Neck1
					{
						OFFSET -0.054170 1.746240 0.172020
						CHANNELS 3 Zrotation Yrotation Xrotation
						JOINT Head
						{
							OFFSET 0.104070 1.761360 -0.123970
							CHANNELS 3 Zrotation Yrotation Xrotation
							End Site
							{
								OFFSET 0.000000 0.000000 0.000000
							}
						}
					}
				}
				JOINT LeftShoulder
				{
					OFFSET 0.000000 0.000000 0.000000
					CHANNELS 3 Zrotation Yrotation Xrotation
					JOINT LeftArm
					{
						OFFSET 3.362410 1.200890 -0.311210
						CHANNELS 3 Zrotation Yrotation Xrotation
						JOINT LeftForeArm
						{
							OFFSET 4.983000 -0.000000 -0.000000
							CHANNELS 3 Zrotation Yrotation Xrotation
							JOINT LeftHand
							{
								OFFSET 3.483560 -0.000000 -0.000000
								CHANNELS 3 Zrotation Yrotation Xrotation
								JOINT LeftFingerBase
								{
									OFFSET 0.000000 0.000000 0.000000
									CHANNELS 3 Zrotation Yrotation Xrotation
									JOINT LeftHandIndex1
									{
										OFFSET 0.715260 -0.000000 -0.000000
										CHANNELS 3 Zrotation Yrotation Xrotation
										End Site
										{
											OFFSET 0.000000 0.000000 0.000000
										}
									}
								}
								JOINT LThumb
								{
									OFFSET 0.000000 0.000000 0.000000
									CHANNELS 3 Zrotation Yrotation Xrotation
									End Site
									{
										OFFSET 0.000000 0.000000 0.000000
									}
								}
							}
						}
					}
				}
				JOINT RightShoulder
				{
					OFFSET 0.000000 0.000000 0.000000
					CHANNELS 3 Zrotation Yrotation Xrotation
					JOINT RightArm
					{
						OFFSET -3.136600 1.374050 -0.404650
						CHANNELS 3 Zrotation Yrotation Xrotation
						JOINT RightForeArm
						{
							OFFSET -5.241900 -0.000000 -0.000000
							CHANNELS 3 Zrotation Yrotation Xrotation
							JOINT RightHand
							{
								OFFSET -3.444170 -0.000000 -0.000000
								CHANNELS 3 Zrotation Yrotation Xrotation
								JOINT RightFingerBase
								{
									OFFSET 0.000000 0.000000 0.000000
									CHANNELS 3 Zrotation Yrotation Xrotation
									JOINT RightHandIndex1
									{
										OFFSET -0.622530 -0.000000 -0.000000
										CHANNELS 3 Zrotation Yrotation Xrotation
										End Site
										{
											OFFSET 0.000000 0.000000 0.000000
										}
									}
								}
								JOINT RThumb
								{
									OFFSET 0.000000 0.000000 0.000000
									CHANNELS 3 Zrotation Yrotation Xrotation
									End Site
									{
										OFFSET 0.000000 0.000000 0.000000
									}
								}
							}
						}
					}
				}
			}
		}
	}
}
MOTION
Frames: 10
Frame Time: 0.008333
13.555849 17.362334 2.268846 176.704170 2.454697 -172.827035 -1.548250 2.724712 2.685245 -23.182040 -1.939809 2.053632 5.021767 11.806787 37.599906 0.351949 0.167390 11.492607 0.503600 -4.549500 -12.627900 -1.206513 -3.995868 3.222341 14.062581 28.808348 -31.105837 -5.652724 -9.585027 35.659228 -0.071615 -0.285556 -5.963988 -0.357000 -3.838600 10.622900 -3.697688 -2.394026 -5.271039 4.172249 -3.269945 3.875297 0.623659 -1.739785 -1.570502 -2.505969 1.297278 -12.766754 -5.487783 2.731150 11.602758 -0.821400 0.860500 6.340000 -2.769548 -3.647056 0.872001 -80.844766 -40.147995 18.158251 22.567173 -26.121736 -4.790063 0.029782 -1.018882 -24.985090 27.047365 17.383362 9.299100 -7.125000 0.000000 0.000000 -0.662500 50.495300 -0.089700 0.654455 2.601575 0.087002 90.550452 -4.964057 -23.091559 -5.724460 6.481002 -0.201577 -0.056830 -0.086846 37.355352 -19.714385 26.769704 -9.205900 7.125000 0.000000 0.000000 6.168300 -1.823100 6.004200 
13.583178 17.374713 2.123824 177.384612 2.139261 -172.854057 -1.448441 2.730109 2.660519 -22.269780 -2.708926 0.342198 5.663210 12.575672 40.548967 0.328402 -0.136601 10.775484 0.597700 -4.949100 -13.763500 -1.241899 -3.922390 3.179050 15.331270 28.712197 -30.099828 -5.609333 -9.544599 35.406638 -0.085466 -0.432836 -6.283457 -0.242200 -3.166900 8.743600 -3.254450 -2.463822 -5.265770 4.625822 -3.337311 3.844863 0.306429 -1.787072 -1.613741 -2.908608 1.153143 -13.082933 -4.786282 2.621438 12.228127 -0.602800 0.834800 6.530300 -2.884211 -3.619825 0.855268 -81.524350 -39.057688 18.924760 21.785852 -25.014700 -4.405431 0.046019 -1.042500 -25.566350 25.286570 17.493486 8.679600 -7.125000 0.000000 0.000000 -2.441700 50.329400 -0.320900 0.669382 2.616630 0.111973 90.655016 -3.922890 -23.092488 -6.225985 7.375861 -0.248007 -0.047439 -0.097721 37.682726 -19.430432 28.422279 -9.575300 7.125000 0.000000 0.000000 6.507600 -0.183600 6.529000 
13.606983 17.382902 1.983562 178.038271 1.942290 -173.100873 -1.362667 2.745936 2.681560 -21.335890 -3.176208 -1.316207 6.299441 13.268537 43.341387 0.259212 -0.129574 9.342804 0.577600 -4.866600 -13.528600 -1.282006 -3.851553 3.155889 16.555797 28.781324 -28.789257 -5.546473 -9.481521 35.071984 -0.115548 -0.710041 -6.963542 -0.402500 -4.073300 11.282900 -2.870849 -2.436804 -5.494545 4.989130 -3.296198 4.368580 0.038948 -1.778903 -1.439745 -3.239917 0.917515 -13.413526 -4.179566 2.358535 12.686484 -0.429900 0.733700 6.691900 -2.940855 -3.650772 0.831052 -81.679365 -39.121810 20.167151 20.103672 -22.568370 -3.605667 -0.019349 -1.019671 -26.006060 24.578303 16.953816 8.167500 -7.125000 0.000000 0.000000 -2.955900 49.565200 -0.333000 0.658593 2.650882 0.101505 90.774533 -2.100210 -23.256868 -6.483479 7.902634 -0.271852 -0.035132 -0.108313 37.671687 -19.440458 29.404145 -9.883200 7.125000 0.000000 0.000000 6.605100 0.817700 6.743400 
13.623742 17.392710 1.850442 178.566315 1.897266 -173.175283 -1.308294 2.753485 2.663417 -20.494916 -3.397225 -3.279367 6.898790 13.869107 45.873795 0.165378 0.334124 7.459471 0.450600 -4.306800 -11.941300 -1.331379 -3.789658 3.102615 17.566246 28.771624 -27.793208 -5.493072 -9.426657 34.786073 -0.135749 -0.855819 -7.411875 -0.530400 -4.667100 12.961400 -2.358128 -2.318753 -5.437106 5.107233 -3.129586 4.290111 -0.353896 -1.707364 -1.541610 -3.391642 0.713202 -13.526806 -3.717463 2.154618 13.492950 -0.319100 0.670700 6.904000 -3.089665 -3.615336 0.805156 -83.195382 -37.277906 18.862118 20.142322 -22.644519 -3.606778 -0.027356 -1.019442 -22.292169 23.304402 16.795884 7.632700 -7.125000 0.000000 0.000000 -4.223800 49.213800 -0.439600 0.723927 2.650828 0.127009 90.978166 -0.725574 -23.487016 -6.816496 8.520747 -0.306225 -0.023579 -0.120391 37.435623 -19.329908 29.780321 -9.943900 7.125000 0.000000 0.000000 6.704500 1.181700 6.888400 
13.640596 17.412897 1.715989 179.208124 1.778548 -173.248943 -1.253392 2.757725 2.631021 -19.485289 -3.611057 -5.304448 7.449198 14.384667 48.129158 0.097540 0.467396 5.572530 0.466200 -4.379400 -12.146700 -1.379823 -3.710874 3.024322 18.749506 28.687275 -26.726405 -5.451644 -9.393053 34.568145 -0.150725 -1.056152 -7.752345 -0.573700 -4.850600 13.482800 -1.679084 -2.145962 -5.097775 5.231502 -2.877843 3.944134 -0.805508 -1.598338 -1.826911 -3.237745 0.537146 -13.366756 -3.731397 1.941592 13.981280 -0.377200 0.589200 6.993800 -3.241821 -3.603106 0.799177 -84.186029 -36.151977 18.261098 19.126651 -21.155723 -3.140439 -0.051963 -1.009016 -18.862531 21.109939 17.141523 6.973800 -7.125000 0.000000 0.000000 -6.474100 49.228100 -0.677600 0.784543 2.657944 0.161317 91.238897 0.275818 -23.957122 -7.308067 9.421145 -0.367391 -0.014706 -0.134111 37.359267 -18.661003 30.684311 -9.847500 7.125000 0.000000 0.000000 7.189100 1.976500 7.491300 
13.661069 17.434417 1.578489 179.887319 1.478241 -173.529617 -1.193231 2.761266 2.626334 -18.406159 -3.914911 -7.000720 7.942904 14.813739 50.093268 0.065080 0.195897 3.790025 0.580800 -4.879800 -13.566100 -1.422409 -3.623217 2.954564 20.079817 28.445570 -25.347170 -5.411628 -9.368971 34.357376 -0.166301 -1.295503 -8.104102 -0.656600 -5.182700 14.430400 -1.084315 -2.029833 -4.887350 5.453519 -2.705764 3.901188 -1.199434 -1.525303 -1.959262 -3.083616 0.370606 -12.877145 -3.888505 1.694397 13.973293 -0.478000 0.483900 6.915200 -3.371757 -3.618495 0.769360 -84.874854 -35.201996 18.292195 18.066998 -19.560942 -2.692895 -0.102924 -1.024917 -16.584614 20.008301 18.268618 6.986000 -7.125000 0.000000 0.000000 -7.849600 50.236400 -1.018600 0.820485 2.654999 0.166768 91.501022 1.553387 -24.448269 -7.729927 10.223713 -0.427126 -0.007664 -0.147235 37.559140 -18.141846 31.476813 -9.785900 7.125000 0.000000 0.000000 7.572900 2.683800 7.988100 
13.676781 17.442987 1.450511 -179.743265 1.408991 -173.713622 -1.165330 2.769543 2.626539 -17.723485 -4.156068 -8.737589 8.384426 15.154574 51.786065 0.046570 0.026982 2.138132 0.608200 -4.991700 -13.885000 -1.469400 -3.565911 2.900447 21.000250 28.009290 -24.358338 -5.388880 -9.353851 34.207987 -0.169180 -1.165697 -8.145735 -0.599100 -4.954700 13.779400 -0.637475 -1.929010 -4.650451 5.410132 -2.567893 3.886567 -1.505655 -1.465934 -2.145270 -2.947477 0.247713 -13.091597 -4.022346 1.587318 14.515624 -0.551500 0.432500 7.081700 -3.482541 -3.592538 0.740176 -85.489399 -34.034634 17.994646 17.329183 -18.466476 -2.402697 -0.171678 -1.012151 -14.597433 20.108304 18.394119 7.070200 -7.125000 0.000000 0.000000 -7.754300 50.365400 -1.030800 0.874453 2.638469 0.189034 91.706132 2.808020 -19.157131 -8.268895 10.872140 -0.495232 0.028041 -0.158495 32.337140 -18.264694 31.141761 -9.774900 7.125000 0.000000 0.000000 7.447800 2.366700 7.814200 
13.688017 17.440416 1.328913 -179.192561 1.612567 -173.925536 -1.131646 2.785547 2.631866 -16.884700 -4.167296 -10.595981 8.772574 15.447422 53.263606 0.042910 -0.125650 0.555444 0.635100 -5.098800 -14.190700 -1.493415 -3.503829 2.857135 22.084361 27.645851 -23.514218 -5.382371 -9.354608 34.146536 -0.180251 -0.845479 -8.341172 -0.607600 -4.989400 13.878500 -0.025630 -1.790266 -4.290032 5.543708 -2.368369 3.981102 -1.907782 -1.373727 -2.413554 -2.925957 0.150160 -13.529421 -4.032726 1.518190 14.973363 -0.578200 0.397100 7.257400 -3.593903 -3.540087 0.700715 -86.110921 -32.831946 17.496910 16.709289 -17.561604 -2.172787 -0.236055 -1.003655 -12.518368 20.180638 18.684150 7.204100 -7.125000 0.000000 0.000000 -7.742200 50.669700 -1.087300 0.900468 2.617038 0.211071 91.806539 3.975324 -13.278894 -8.946487 11.754903 -0.597714 0.069933 -0.163641 26.458561 -18.121899 31.237585 -9.733900 7.125000 0.000000 0.000000 7.524000 2.432400 7.903900 
13.701443 17.436512 1.206934 -178.702292 1.626065 -174.251409 -1.099475 2.797054 2.642179 -16.068391 -4.324029 -12.289361 9.113922 15.687594 54.539734 0.064789 -0.522792 -1.065528 0.715400 -5.405400 -15.068500 -1.508997 -3.439157 2.808237 23.103725 27.480551 -22.499813 -5.384904 -9.381946 34.176869 -0.205329 -0.825069 -8.818216 -0.741100 -5.499500 15.338900 0.390546 -1.658496 -3.899151 5.721578 -2.168195 4.045561 -2.218562 -1.279727 -2.650706 -3.099849 0.012362 -13.147708 -3.786188 1.299297 14.697930 -0.524100 0.314800 7.114700 -3.703457 -3.501652 0.647709 -86.740567 -31.510861 17.258506 16.130943 -16.698714 -1.972592 -0.311693 -0.996575 -10.356893 20.536934 19.124288 7.506000 -7.125000 0.000000 0.000000 -7.487700 51.182000 -1.145800 0.934715 2.594924 0.217641 91.856077 5.130743 -8.784308 -9.582061 12.661814 -0.710850 0.104267 -0.165817 21.603530 -17.540976 31.851744 -9.583000 7.125000 0.000000 0.000000 7.913700 2.941900 8.388300 
13.720963 17.436322 1.087336 -178.685479 1.417185 -174.444997 -1.087991 2.816435 2.661232 -15.747208 -4.882232 -14.055755 9.420651 15.849684 55.622109 0.094993 -0.887545 -2.340171 0.762900 -5.577700 -15.564000 -1.530193 -3.409828 2.777083 23.497039 27.523091 -21.680526 -5.400423 -9.434285 34.305280 -0.218503 -1.230834 -9.113595 -0.814500 -5.759100 16.087100 0.264788 -1.602789 -3.672805 5.702699 -2.087381 4.154955 -2.221814 -1.239527 -2.785042 -3.347203 -0.096596 -13.042600 -3.512342 1.143450 14.485371 -0.437600 0.250800 7.034300 -3.800327 -3.476485 0.603861 -87.333485 -30.399863 16.576998 15.468381 -15.705976 -1.752985 -0.416636 -0.895587 -7.827890 21.782215 17.682045 7.424300 -7.125000 0.000000 0.000000 -5.774400 49.785200 -0.683200 0.983514 2.577799 0.223348 91.824307 6.485309 -5.185463 -10.190976 13.591293 -0.835658 0.136560 -0.161156 17.696819 -17.179117 31.925596 -9.407200 7.125000 0.000000 0.000000 8.113900 2.945600 8.605200 
